<svg width="32" height="32" viewBox="0 0 32 32" fill="none" xmlns="http://www.w3.org/2000/svg">
  <rect width="32" height="32" rx="6" fill="#FAF8F1"/>
  <path d="M16.608 24H19.392L15.008 8H12.064L7.68 24H10.464L11.424 20.608H15.648L16.608 24ZM12.096 18.368L13.536 13.04L15.008 18.368H12.096ZM24.6527 16.128C23.6927 15.808 22.9447 15.648 22.4087 15.648C21.3367 15.648 20.8007 16.048 20.8007 16.848C20.8007 17.616 21.4527 18 22.7567 18C23.3607 18 24.0287 17.92 24.6527 17.76V16.128ZM24.6527 21.92C23.7727 23.136 22.3727 23.744 20.4807 23.744C18.5246 23.744 17.0607 23.2 16.0847 22.112C15.1087 21.024 14.6207 19.616 14.6207 17.888C14.6207 16.096 15.1407 14.64 16.1807 13.52C17.2207 12.4 18.6527 11.84 20.4767 11.84C21.6927 11.84 22.7407 12 23.6207 12.32C24.5007 12.64 25.1887 13.152 25.6847 13.856C26.1807 14.544 26.4287 15.376 26.4287 16.352C26.4287 16.864 26.3807 17.408 26.2847 17.984H17.5327C17.5967 18.992 17.9087 19.76 18.4687 20.288C19.0287 20.8 19.8127 21.056 20.8207 21.056C22.1887 21.056 23.2767 20.608 24.0927 19.712L24.6527 21.92Z" fill="#A87C50"/>
</svg> 